<?xml version="1.0" encoding="utf-8"?>
<!-- Generator: Adobe Illustrator 22.0.0, SVG Export Plug-In . SVG Version: 6.00 Build 0)  -->
<svg version="1.1" id="_x2014_ÎÓÈ_x5F_1" xmlns="http://www.w3.org/2000/svg" xmlns:xlink="http://www.w3.org/1999/xlink"
	 x="0px" y="0px" viewBox="0 0 1451.3 1451.3" style="enable-background:new 0 0 1451.3 1451.3;" xml:space="preserve">
<path d="M1175.7,109.3c-36-21.1-81.4-20.7-117.6-15.2H393.3c-36.3-5.5-81.7-5.8-117.6,15.2c-66.8,39.1-70,131.5-9.7,282.3
	c9.1,23.1,21.8,49.8,34,75.6c12.6,26.6,25.7,54.2,34.2,76.5c6.2,16.3,8.7,26.3,9.6,32.5c-9.8,0.8-18.7,5.4-22.6,12.5
	c-5.6,10.3,1.3,21.9,15.5,26c8,2.3,15.1,3.2,21.2,3.2c13.6,0,22.6-4.4,27.5-7.8c10.9-7.5,15.1-18.4,13.8-33.7
	c57.8,114.6,147,197.3,250.5,224.8l12.1,62.9h127.6l12.1-62.9c103.5-27.5,192.7-110.2,250.5-224.8c-1.2,15.3,2.9,26.2,13.9,33.7
	c4.9,3.4,13.9,7.8,27.5,7.8c6.1,0,13.2-0.9,21.2-3.2c14.2-4.1,21.2-15.7,15.6-26c-3.9-7.1-12.8-11.7-22.6-12.5
	c0.9-6.1,3.4-16.2,9.6-32.5c8.5-22.4,21.6-49.9,34.2-76.5c12.2-25.8,24.9-52.5,34-75.6C1245.6,240.8,1242.5,148.4,1175.7,109.3z
	 M352.4,454.3c-12-25.3-24.4-51.5-33.2-73.7c-69.1-172.8-35.1-224.7-8.8-240.2c9-5.3,19.9-8,31.3-9.1
	c-8.2,43.6-12.6,89.3-12.6,136.4c0,66.9,8.8,131,25,190.2C353.5,456.7,353,455.5,352.4,454.3z M1132.1,380.6
	c-8.7,22.1-21.1,48.3-33.1,73.7c-0.6,1.2-1.1,2.4-1.7,3.6c16.1-59.2,25-123.3,25-190.2c0-47.1-4.4-92.9-12.6-136.5
	c11.3,1.1,22.1,3.8,31.2,9.1C1167.2,155.8,1201.3,207.6,1132.1,380.6z M883.3,1114c0-21.6-17.6-39.2-39.2-39.2h-35l-16.9-88.1h-133
	l-16.9,88.1h-35c-21.6,0-39.2,17.7-39.2,39.2v34.1h-81.8V1407h478.8v-258.8h-81.8V1114z M817.4,882.6H633.9v85.6h183.5V882.6z"/>
</svg>
